<?xml version="1.0" encoding="UTF-8"?>
<svg width="16" height="16" version="1.1" viewBox="0 0 16 16" xml:space="preserve" xmlns="http://www.w3.org/2000/svg" xmlns:cc="http://creativecommons.org/ns#" xmlns:dc="http://purl.org/dc/elements/1.1/" xmlns:rdf="http://www.w3.org/1999/02/22-rdf-syntax-ns#"><metadata><rdf:RDF><cc:Work rdf:about=""><dc:format>image/svg+xml</dc:format><dc:type rdf:resource="http://purl.org/dc/dcmitype/StillImage"/><dc:title/></cc:Work></rdf:RDF></metadata>
<g transform="matrix(.069514 0 0 .069514 0 -.29987)" fill="#999">
	<path d="m230 49.585c0-0.263 0.181-0.519 0.169-0.779l-70.24 67.68 70.156 65.518c0.041-0.468-0.085-0.94-0.085-1.418z"/>
	<path d="m149.21 126.9-28.674 27.588c-1.451 1.396-3.325 2.096-5.2 2.096-1.836 0-3.672-0.67-5.113-2.013l-28.596-26.647-70.614 68.064c1.717 0.617 3.56 1.096 5.49 1.096h197.67c2.866 0 5.554-0.873 7.891-2.175z"/>
	<path d="m115.25 138.76 107.2-103.26c-2.427-1.443-5.252-2.411-8.28-2.411h-197.67c-3.943 0-7.556 1.531-10.37 3.866z"/>
	<path d="m0 52.1v128.48c0 1.475 0.339 2.897 0.707 4.256l69.738-67.156z"/>
</g>















</svg>
